name rise35.5848peak51.9257fall54.8793.mot
datacolumns 19
datarows 21
range 13.21160900000000 13.24494200000000
endheader
time	ground_force1_vx	ground_force1_vy	ground_force1_vz	ground_force1_px	ground_force1_py	ground_force1_pz	ground_force2_vx	ground_force2_vy	ground_force2_vz	ground_force2_px	ground_force2_py	ground_force2_pz	ground_torque1_x	ground_torque1_y	ground_torque1_z	ground_torque2_x	ground_torque2_y	ground_torque2_z	
13.21160900000000	57.28910900000000	781.56705299999999	55.88194100000000	0.28788900000000	0.00000000000000	0.12336600000000	0.00000000000000	0.00000000000000	0.00000000000000	0.00000000000000	0.00000000000000	0.00000000000000	0.00000000000000	18.14647600000000	0.00000000000000	0.00000000000000	0.00000000000000	0.00000000000000	
13.21327700000000	56.64029800000000	783.84164799999996	56.01115800000000	0.28719200000000	0.00000000000000	0.12334600000000	0.00000000000000	0.00000000000000	0.00000000000000	0.00000000000000	0.00000000000000	0.00000000000000	0.00000000000000	18.25637400000000	0.00000000000000	0.00000000000000	0.00000000000000	0.00000000000000	
13.21494900000000	55.99075200000000	785.95245000000000	56.13634500000000	0.28651100000000	0.00000000000000	0.12332700000000	0.00000000000000	0.00000000000000	0.00000000000000	0.00000000000000	0.00000000000000	0.00000000000000	0.00000000000000	18.36426700000000	0.00000000000000	0.00000000000000	0.00000000000000	0.00000000000000	
13.21661200000000	55.34078300000000	787.89838499999996	56.25768400000000	0.28584200000000	0.00000000000000	0.12330800000000	0.00000000000000	0.00000000000000	0.00000000000000	0.00000000000000	0.00000000000000	0.00000000000000	0.00000000000000	18.47013000000000	0.00000000000000	0.00000000000000	0.00000000000000	0.00000000000000	
13.21827700000000	54.69063700000000	789.67865300000005	56.37530100000000	0.28518300000000	0.00000000000000	0.12329000000000	0.00000000000000	0.00000000000000	0.00000000000000	0.00000000000000	0.00000000000000	0.00000000000000	0.00000000000000	18.57391400000000	0.00000000000000	0.00000000000000	0.00000000000000	0.00000000000000	
13.21994600000000	54.04049800000000	791.29273200000000	56.48926900000000	0.28453100000000	0.00000000000000	0.12327300000000	0.00000000000000	0.00000000000000	0.00000000000000	0.00000000000000	0.00000000000000	0.00000000000000	0.00000000000000	18.67555200000000	0.00000000000000	0.00000000000000	0.00000000000000	0.00000000000000	
13.22161200000000	53.39048800000000	792.74039600000003	56.59961000000000	0.28388500000000	0.00000000000000	0.12325700000000	0.00000000000000	0.00000000000000	0.00000000000000	0.00000000000000	0.00000000000000	0.00000000000000	0.00000000000000	18.77495600000000	0.00000000000000	0.00000000000000	0.00000000000000	0.00000000000000	
13.22328100000000	52.74068000000000	794.02171399999997	56.70629300000000	0.28324100000000	0.00000000000000	0.12324200000000	0.00000000000000	0.00000000000000	0.00000000000000	0.00000000000000	0.00000000000000	0.00000000000000	0.00000000000000	18.87202000000000	0.00000000000000	0.00000000000000	0.00000000000000	0.00000000000000	
13.22494400000000	52.09109400000000	795.13706400000001	56.80924200000000	0.28259700000000	0.00000000000000	0.12322800000000	0.00000000000000	0.00000000000000	0.00000000000000	0.00000000000000	0.00000000000000	0.00000000000000	0.00000000000000	18.96661900000000	0.00000000000000	0.00000000000000	0.00000000000000	0.00000000000000	
13.22661500000000	51.44170900000000	796.08713200000000	56.90833400000000	0.28195000000000	0.00000000000000	0.12321500000000	0.00000000000000	0.00000000000000	0.00000000000000	0.00000000000000	0.00000000000000	0.00000000000000	0.00000000000000	19.05861400000000	0.00000000000000	0.00000000000000	0.00000000000000	0.00000000000000	
13.22828200000000	50.79246600000000	796.87291700000003	57.00340400000000	0.28129800000000	0.00000000000000	0.12320300000000	0.00000000000000	0.00000000000000	0.00000000000000	0.00000000000000	0.00000000000000	0.00000000000000	0.00000000000000	19.14785000000000	0.00000000000000	0.00000000000000	0.00000000000000	0.00000000000000	
13.22994500000000	50.14327100000000	797.49573699999996	57.09424900000000	0.28063800000000	0.00000000000000	0.12319300000000	0.00000000000000	0.00000000000000	0.00000000000000	0.00000000000000	0.00000000000000	0.00000000000000	0.00000000000000	19.23416000000000	0.00000000000000	0.00000000000000	0.00000000000000	0.00000000000000	
13.23161200000000	49.49400500000000	797.95722100000000	57.18063100000000	0.27996700000000	0.00000000000000	0.12318400000000	0.00000000000000	0.00000000000000	0.00000000000000	0.00000000000000	0.00000000000000	0.00000000000000	0.00000000000000	19.31736600000000	0.00000000000000	0.00000000000000	0.00000000000000	0.00000000000000	
13.23327900000000	48.84452700000000	798.25931700000001	57.26227800000000	0.27928400000000	0.00000000000000	0.12317600000000	0.00000000000000	0.00000000000000	0.00000000000000	0.00000000000000	0.00000000000000	0.00000000000000	0.00000000000000	19.39727800000000	0.00000000000000	0.00000000000000	0.00000000000000	0.00000000000000	
13.23494200000000	48.19467900000000	798.40428499999996	57.33889000000000	0.27858600000000	0.00000000000000	0.12317000000000	0.00000000000000	0.00000000000000	0.00000000000000	0.00000000000000	0.00000000000000	0.00000000000000	0.00000000000000	19.47370100000000	0.00000000000000	0.00000000000000	0.00000000000000	0.00000000000000	
13.23661400000000	47.54429300000000	798.39469199999996	57.41014300000000	0.27787000000000	0.00000000000000	0.12316500000000	0.00000000000000	0.00000000000000	0.00000000000000	0.00000000000000	0.00000000000000	0.00000000000000	0.00000000000000	19.54643300000000	0.00000000000000	0.00000000000000	0.00000000000000	0.00000000000000	
13.23827800000000	46.89319400000000	798.23341000000005	57.47569200000000	0.27713500000000	0.00000000000000	0.12316200000000	0.00000000000000	0.00000000000000	0.00000000000000	0.00000000000000	0.00000000000000	0.00000000000000	0.00000000000000	19.61526800000000	0.00000000000000	0.00000000000000	0.00000000000000	0.00000000000000	
13.23994600000000	46.24120700000000	797.92360799999994	57.53517400000000	0.27637700000000	0.00000000000000	0.12316000000000	0.00000000000000	0.00000000000000	0.00000000000000	0.00000000000000	0.00000000000000	0.00000000000000	0.00000000000000	19.67999800000000	0.00000000000000	0.00000000000000	0.00000000000000	0.00000000000000	
13.24161100000000	45.58816200000000	797.46874400000002	57.58821500000000	0.27559600000000	0.00000000000000	0.12315900000000	0.00000000000000	0.00000000000000	0.00000000000000	0.00000000000000	0.00000000000000	0.00000000000000	0.00000000000000	19.74041500000000	0.00000000000000	0.00000000000000	0.00000000000000	0.00000000000000	
13.24328000000000	44.93389700000000	796.87255400000004	57.63443100000000	0.27478900000000	0.00000000000000	0.12316000000000	0.00000000000000	0.00000000000000	0.00000000000000	0.00000000000000	0.00000000000000	0.00000000000000	0.00000000000000	19.79631300000000	0.00000000000000	0.00000000000000	0.00000000000000	0.00000000000000	
13.24494200000000	44.27826400000000	796.13904600000001	57.67343300000000	0.27395500000000	0.00000000000000	0.12316300000000	0.00000000000000	0.00000000000000	0.00000000000000	0.00000000000000	0.00000000000000	0.00000000000000	0.00000000000000	19.84748900000000	0.00000000000000	0.00000000000000	0.00000000000000	0.00000000000000	
